<mxfile host="app.diagrams.net" agent="Mozilla/5.0 (Windows NT 10.0; Win64; x64) AppleWebKit/537.36 (KHTML, like Gecko) Chrome/128.0.0.0 Whale/3.28.266.14 Safari/537.36" version="24.7.7">
  <diagram name="Page-1" id="e7e014a7-5840-1c2e-5031-d8a46d1fe8dd">
    <mxGraphModel dx="3482" dy="1315" grid="1" gridSize="10" guides="1" tooltips="1" connect="1" arrows="1" fold="1" page="1" pageScale="1" pageWidth="1169" pageHeight="826" background="none" math="0" shadow="0">
      <root>
        <mxCell id="0" />
        <mxCell id="1" parent="0" />
        <mxCell id="2" value="Pose Landmarker Runner (Unity C#)" style="swimlane;whiteSpace=wrap" parent="1" vertex="1">
          <mxGeometry x="164.5" y="128" width="280" height="570" as="geometry" />
        </mxCell>
        <mxCell id="5" value="" style="ellipse;shape=startState;fillColor=#000000;strokeColor=#ff0000;" parent="2" vertex="1">
          <mxGeometry x="100" y="40" width="30" height="30" as="geometry" />
        </mxCell>
        <mxCell id="6" value="" style="edgeStyle=elbowEdgeStyle;elbow=horizontal;verticalAlign=bottom;endArrow=open;endSize=8;strokeColor=#FF0000;endFill=1;rounded=0" parent="2" source="5" target="7" edge="1">
          <mxGeometry x="100" y="40" as="geometry">
            <mxPoint x="115" y="110" as="targetPoint" />
          </mxGeometry>
        </mxCell>
        <mxCell id="7" value="Webcam Capture" style="" parent="2" vertex="1">
          <mxGeometry x="45.5" y="110" width="200" height="50" as="geometry" />
        </mxCell>
        <mxCell id="8" value="Read Texture" style="" parent="2" vertex="1">
          <mxGeometry x="40" y="220" width="210" height="50" as="geometry" />
        </mxCell>
        <mxCell id="9" value="" style="endArrow=open;strokeColor=#FF0000;endFill=1;rounded=0" parent="2" source="7" target="8" edge="1">
          <mxGeometry relative="1" as="geometry" />
        </mxCell>
        <mxCell id="10" value="Request for Pose Detection" style="" parent="2" vertex="1">
          <mxGeometry x="40" y="325" width="210" height="50" as="geometry" />
        </mxCell>
        <mxCell id="11" value="" style="endArrow=open;strokeColor=#FF0000;endFill=1;rounded=0" parent="2" source="8" target="10" edge="1">
          <mxGeometry relative="1" as="geometry" />
        </mxCell>
        <mxCell id="n3sr81KYQuMuHgAfEhZ_-74" value="ref PoseLandmarker Result" style="shape=hexagon;perimeter=hexagonPerimeter2;whiteSpace=wrap;html=1;fixedSize=1;" vertex="1" parent="2">
          <mxGeometry x="40" y="422" width="220" height="80" as="geometry" />
        </mxCell>
        <mxCell id="3" value="Call Mediapipe.cpp (C#)" style="swimlane;whiteSpace=wrap" parent="1" vertex="1">
          <mxGeometry x="444.5" y="128" width="280" height="570" as="geometry" />
        </mxCell>
        <mxCell id="16" value="Process Image Data)(packetMap)" style="" parent="3" vertex="1">
          <mxGeometry x="20" y="220" width="210" height="50" as="geometry" />
        </mxCell>
        <mxCell id="18" value="Detection Internal" style="" parent="3" vertex="1">
          <mxGeometry x="20" y="325" width="210" height="50" as="geometry" />
        </mxCell>
        <mxCell id="n3sr81KYQuMuHgAfEhZ_-59" value="" style="endArrow=open;strokeColor=#FF0000;endFill=1;rounded=0;exitX=0.5;exitY=0;exitDx=0;exitDy=0;entryX=0.5;entryY=1;entryDx=0;entryDy=0;" edge="1" parent="3" source="18" target="16">
          <mxGeometry relative="1" as="geometry">
            <mxPoint x="-125" y="280" as="sourcePoint" />
            <mxPoint x="-125" y="335" as="targetPoint" />
          </mxGeometry>
        </mxCell>
        <mxCell id="n3sr81KYQuMuHgAfEhZ_-60" value="TaskRunner.Process(packetMap)" style="" vertex="1" parent="3">
          <mxGeometry x="20" y="127" width="210" height="50" as="geometry" />
        </mxCell>
        <mxCell id="n3sr81KYQuMuHgAfEhZ_-61" value="" style="endArrow=open;strokeColor=#FF0000;endFill=1;rounded=0;exitX=0.5;exitY=0;exitDx=0;exitDy=0;entryX=0.5;entryY=1;entryDx=0;entryDy=0;" edge="1" parent="3" source="n3sr81KYQuMuHgAfEhZ_-60" target="15">
          <mxGeometry relative="1" as="geometry">
            <mxPoint x="-125" y="82" as="sourcePoint" />
            <mxPoint x="125" y="72" as="targetPoint" />
          </mxGeometry>
        </mxCell>
        <mxCell id="n3sr81KYQuMuHgAfEhZ_-62" value="" style="endArrow=open;strokeColor=#FF0000;endFill=1;rounded=0;exitX=0.5;exitY=0;exitDx=0;exitDy=0;entryX=0.5;entryY=1;entryDx=0;entryDy=0;" edge="1" parent="3" source="16" target="n3sr81KYQuMuHgAfEhZ_-60">
          <mxGeometry relative="1" as="geometry">
            <mxPoint x="135" y="137" as="sourcePoint" />
            <mxPoint x="135" y="82" as="targetPoint" />
          </mxGeometry>
        </mxCell>
        <mxCell id="15" value="Call cpp code" style="" parent="3" vertex="1">
          <mxGeometry x="20" y="42" width="210" height="50" as="geometry" />
        </mxCell>
        <mxCell id="4" value="Native Code (Mediapipoe cpp)" style="swimlane;whiteSpace=wrap" parent="1" vertex="1">
          <mxGeometry x="724.5" y="128" width="280" height="570" as="geometry" />
        </mxCell>
        <mxCell id="n3sr81KYQuMuHgAfEhZ_-66" value="packetMap" style="" vertex="1" parent="4">
          <mxGeometry x="57.75" y="42" width="174.5" height="50" as="geometry" />
        </mxCell>
        <mxCell id="n3sr81KYQuMuHgAfEhZ_-68" value="Native Code" style="" vertex="1" parent="4">
          <mxGeometry x="57.75" y="162" width="182.25" height="178" as="geometry" />
        </mxCell>
        <mxCell id="n3sr81KYQuMuHgAfEhZ_-69" value="" style="endArrow=open;strokeColor=#FF0000;endFill=1;rounded=0;exitX=0.5;exitY=1;exitDx=0;exitDy=0;entryX=0.479;entryY=0.004;entryDx=0;entryDy=0;entryPerimeter=0;" edge="1" parent="4" source="n3sr81KYQuMuHgAfEhZ_-66" target="n3sr81KYQuMuHgAfEhZ_-68">
          <mxGeometry relative="1" as="geometry">
            <mxPoint x="-40.5" y="77" as="sourcePoint" />
            <mxPoint x="67.5" y="77" as="targetPoint" />
          </mxGeometry>
        </mxCell>
        <mxCell id="20" value="" style="endArrow=open;strokeColor=#FF0000;endFill=1;rounded=0" parent="1" source="10" target="18" edge="1">
          <mxGeometry relative="1" as="geometry" />
        </mxCell>
        <mxCell id="n3sr81KYQuMuHgAfEhZ_-41" value="Thread 3" style="swimlane;whiteSpace=wrap" vertex="1" parent="1">
          <mxGeometry x="1004.5" y="128" width="280" height="570" as="geometry" />
        </mxCell>
        <mxCell id="n3sr81KYQuMuHgAfEhZ_-70" value="packetMap" style="" vertex="1" parent="n3sr81KYQuMuHgAfEhZ_-41">
          <mxGeometry x="53.87999999999989" y="222" width="174.5" height="50" as="geometry" />
        </mxCell>
        <mxCell id="n3sr81KYQuMuHgAfEhZ_-71" value="PoseLandmarkerResult" style="" vertex="1" parent="n3sr81KYQuMuHgAfEhZ_-41">
          <mxGeometry x="53.87999999999989" y="437" width="182.25" height="50" as="geometry" />
        </mxCell>
        <mxCell id="n3sr81KYQuMuHgAfEhZ_-72" value="" style="endArrow=open;strokeColor=#FF0000;endFill=1;rounded=0;exitX=0.5;exitY=1;exitDx=0;exitDy=0;entryX=0.479;entryY=0.004;entryDx=0;entryDy=0;entryPerimeter=0;" edge="1" parent="n3sr81KYQuMuHgAfEhZ_-41" source="n3sr81KYQuMuHgAfEhZ_-70" target="n3sr81KYQuMuHgAfEhZ_-71">
          <mxGeometry relative="1" as="geometry">
            <mxPoint x="-44.37" y="257" as="sourcePoint" />
            <mxPoint x="63.62999999999989" y="257" as="targetPoint" />
          </mxGeometry>
        </mxCell>
        <mxCell id="n3sr81KYQuMuHgAfEhZ_-48" value="" style="rounded=0;whiteSpace=wrap;html=1;" vertex="1" parent="1">
          <mxGeometry x="-195" y="220" width="340" height="90" as="geometry" />
        </mxCell>
        <mxCell id="n3sr81KYQuMuHgAfEhZ_-47" value="&lt;pre&gt;&lt;code class=&quot;language-csharp&quot;&gt;var imageSource = ImageSourceProvider.ImageSource;&#xa;yield return imageSource.Play();&#xa;&lt;/code&gt;&lt;/pre&gt;" style="text;whiteSpace=wrap;html=1;" vertex="1" parent="1">
          <mxGeometry x="-185" y="230" width="330" height="80" as="geometry" />
        </mxCell>
        <mxCell id="n3sr81KYQuMuHgAfEhZ_-49" value="" style="rounded=0;whiteSpace=wrap;html=1;" vertex="1" parent="1">
          <mxGeometry x="-195" y="330" width="340" height="90" as="geometry" />
        </mxCell>
        <mxCell id="n3sr81KYQuMuHgAfEhZ_-50" value="&lt;pre style=&quot;line-height: 40%;&quot;&gt;&lt;code class=&quot;language-csharp&quot;&gt;// GPU 처리 시&lt;/code&gt;&lt;/pre&gt;&lt;pre style=&quot;line-height: 40%;&quot;&gt;&lt;code class=&quot;language-csharp&quot;&gt;Image image = textureFrame.BuildGpuImage(glContext); &lt;br&gt;&lt;pre style=&quot;line-height: 40%;&quot;&gt;&lt;code class=&quot;language-csharp&quot;&gt;// CPU 처리 시&lt;/code&gt;&lt;/pre&gt;&lt;/code&gt;&lt;/pre&gt;&lt;pre style=&quot;line-height: 40%;&quot;&gt;&lt;code class=&quot;language-csharp&quot;&gt;Image image = textureFrame.BuildCPUImage(); &lt;br&gt;&lt;/code&gt;&lt;/pre&gt;" style="text;whiteSpace=wrap;html=1;" vertex="1" parent="1">
          <mxGeometry x="-190" y="333" width="330" height="80" as="geometry" />
        </mxCell>
        <mxCell id="n3sr81KYQuMuHgAfEhZ_-51" value="" style="rounded=0;whiteSpace=wrap;html=1;" vertex="1" parent="1">
          <mxGeometry x="-195" y="440" width="340" height="70" as="geometry" />
        </mxCell>
        <mxCell id="n3sr81KYQuMuHgAfEhZ_-52" value="&lt;pre style=&quot;line-height: 40%;&quot;&gt;taskApi.TryDetect(image, imageProcessingOptions, &lt;/pre&gt;&lt;pre style=&quot;line-height: 40%;&quot;&gt;&lt;span style=&quot;white-space: pre;&quot;&gt;&#x9;&lt;/span&gt;&lt;span style=&quot;white-space: pre;&quot;&gt;&#x9;&lt;/span&gt;&lt;span style=&quot;white-space: pre;&quot;&gt;&#x9;&lt;/span&gt;&lt;span style=&quot;white-space: pre;&quot;&gt;&#x9;&lt;/span&gt;&lt;span style=&quot;white-space: pre;&quot;&gt;&#x9;&lt;/span&gt;&lt;u style=&quot;background-color: rgb(204, 216, 255);&quot;&gt;&lt;b&gt;ref&lt;/b&gt; &lt;b&gt;result&lt;/b&gt;&lt;/u&gt;);&lt;br&gt;&lt;span style=&quot;background-color: initial; font-family: Helvetica; white-space: normal;&quot;&gt;&lt;/span&gt;&lt;/pre&gt;" style="text;whiteSpace=wrap;html=1;" vertex="1" parent="1">
          <mxGeometry x="-190" y="443" width="330" height="57" as="geometry" />
        </mxCell>
        <mxCell id="n3sr81KYQuMuHgAfEhZ_-53" value="" style="rounded=0;whiteSpace=wrap;html=1;" vertex="1" parent="1">
          <mxGeometry x="-660" y="550" width="795" height="250" as="geometry" />
        </mxCell>
        <mxCell id="n3sr81KYQuMuHgAfEhZ_-54" value="&lt;pre style=&quot;line-height: 40%;&quot;&gt;public bool &lt;span class=&quot;notion-enable-hover&quot; data-token-index=&quot;1&quot; style=&quot;color:inherit;border-bottom:0.05em solid;word-wrap:break-word;font-weight:600&quot;&gt;TryDetect&lt;/span&gt;(Image image, Core.ImageProcessingOptions? imageProcessingOptions, ref PoseLandmarkerResult result)&lt;/pre&gt;&lt;pre style=&quot;line-height: 40%;&quot;&gt;&lt;br&gt;    {&lt;br&gt;&#x9; &lt;/pre&gt;&lt;pre style=&quot;line-height: 40%;&quot;&gt;      // DetectInternal을 통해 연산 결과를 outputPackets에 저장&lt;/pre&gt;&lt;pre style=&quot;line-height: 40%;&quot;&gt;&lt;br&gt;      using var outputPackets = &lt;span class=&quot;notion-enable-hover&quot; data-token-index=&quot;3&quot; style=&quot;color:inherit;border-bottom:0.05em solid;word-wrap:break-word;font-weight:600&quot;&gt;DetectInternal&lt;/span&gt;(image, imageProcessingOptions);&lt;/pre&gt;&lt;pre style=&quot;line-height: 40%;&quot;&gt;&lt;br&gt;&lt;/pre&gt;&lt;pre style=&quot;line-height: 40%;&quot;&gt;      // outputPackets를 기반으로 localTransform, WorldTransform을 실제로 적용&lt;/pre&gt;&lt;pre style=&quot;line-height: 40%;&quot;&gt;&lt;br&gt;      return TryBuildPoseLandmarkerResult(outputPackets, ref result);&lt;br&gt;    }&lt;br&gt;&lt;/pre&gt;&lt;pre style=&quot;line-height: 40%;&quot;&gt;&lt;span style=&quot;background-color: initial; font-family: Helvetica; white-space: normal;&quot;&gt;&lt;/span&gt;&lt;/pre&gt;" style="text;whiteSpace=wrap;html=1;" vertex="1" parent="1">
          <mxGeometry x="-625" y="585" width="730" height="180" as="geometry" />
        </mxCell>
        <mxCell id="n3sr81KYQuMuHgAfEhZ_-56" value="" style="rounded=0;whiteSpace=wrap;html=1;" vertex="1" parent="1">
          <mxGeometry x="-657.5" y="810" width="795" height="250" as="geometry" />
        </mxCell>
        <mxCell id="n3sr81KYQuMuHgAfEhZ_-57" value="&lt;pre style=&quot;line-height: 40%;&quot;&gt;private &lt;span class=&quot;notion-enable-hover&quot; data-token-index=&quot;1&quot; style=&quot;color:inherit;border-bottom:0.05em solid;word-wrap:break-word&quot;&gt;PacketMap&lt;/span&gt; &lt;span class=&quot;notion-enable-hover&quot; data-token-index=&quot;3&quot; style=&quot;color:inherit;border-bottom:0.05em solid;word-wrap:break-word;font-weight:600&quot;&gt;DetectInternal&lt;/span&gt;(Image image, Core.ImageProcessingOptions? imageProcessingOptions)&lt;br/&gt;&lt;br/&gt;&lt;/pre&gt;&lt;pre style=&quot;line-height: 40%;&quot;&gt;    {&lt;br&gt;&#x9; &lt;/pre&gt;&lt;pre style=&quot;line-height: 40%;&quot;&gt;      ConfigureNormalizedRect(_normalizedRect, imageProcessingOptions, image, roiAllowed: false);&lt;br/&gt;&lt;br/&gt;&lt;/pre&gt;&lt;pre style=&quot;line-height: 40%;&quot;&gt;      var packetMap = new PacketMap();&lt;br/&gt;&lt;br/&gt;&lt;/pre&gt;&lt;pre style=&quot;line-height: 40%;&quot;&gt;      packetMap.Emplace(_IMAGE_IN_STREAM_NAME, Packet.CreateImage(image));&lt;br/&gt;&lt;br/&gt;&lt;/pre&gt;&lt;pre style=&quot;line-height: 40%;&quot;&gt;      packetMap.Emplace(_NORM_RECT_STREAM_NAME, Packet.CreateProto(_normalizedRect));&lt;/pre&gt;&lt;pre style=&quot;line-height: 40%;&quot;&gt;      &lt;/pre&gt;&lt;pre style=&quot;line-height: 40%;&quot;&gt;&lt;span style=&quot;white-space: pre;&quot;&gt;&#x9;&lt;/span&gt;return &lt;span style=&quot;background-color: initial; color: inherit; font-family: Helvetica; white-space: normal; border-bottom: 0.05em solid; overflow-wrap: break-word; font-weight: 600;&quot; class=&quot;notion-enable-hover&quot; data-token-index=&quot;1&quot;&gt;ProcessImageData(packetMap)&lt;/span&gt;&lt;span style=&quot;background-color: initial; font-family: Helvetica; white-space: normal;&quot;&gt;;&lt;/span&gt;&lt;/pre&gt;&lt;pre style=&quot;line-height: 40%;&quot;&gt;&lt;br/&gt;&lt;/pre&gt;&lt;pre style=&quot;line-height: 40%;&quot;&gt;    }&lt;br&gt;&lt;/pre&gt;&lt;pre style=&quot;line-height: 40%;&quot;&gt;&lt;br&gt;&lt;/pre&gt;&lt;pre style=&quot;line-height: 40%;&quot;&gt;&lt;span style=&quot;background-color: initial; font-family: Helvetica; white-space: normal;&quot;&gt;&lt;/span&gt;&lt;/pre&gt;" style="text;whiteSpace=wrap;html=1;" vertex="1" parent="1">
          <mxGeometry x="-622.5" y="845" width="730" height="180" as="geometry" />
        </mxCell>
        <mxCell id="n3sr81KYQuMuHgAfEhZ_-64" value="" style="rounded=0;whiteSpace=wrap;html=1;" vertex="1" parent="1">
          <mxGeometry x="-660" y="1070" width="977.5" height="120" as="geometry" />
        </mxCell>
        <mxCell id="n3sr81KYQuMuHgAfEhZ_-65" value="&lt;pre style=&quot;line-height: 40%;&quot;&gt;[DllImport(MediaPipeLibrary, ExactSpelling = true)]&lt;br&gt;&lt;/pre&gt;&lt;pre style=&quot;line-height: 40%;&quot;&gt;public static extern MpReturnCode mp_tasks_core_TaskRunner__Process__Ppm(IntPtr taskRunner, IntPtr inputs, &lt;span class=&quot;notion-enable-hover&quot; data-token-index=&quot;1&quot; style=&quot;font-weight:600&quot;&gt;out IntPtr status, out IntPtr packetMap&lt;/span&gt;);&lt;br&gt;&lt;/pre&gt;&lt;pre style=&quot;line-height: 40%;&quot;&gt;&lt;span style=&quot;background-color: initial; font-family: Helvetica; white-space: normal;&quot;&gt;&lt;/span&gt;&lt;/pre&gt;" style="text;whiteSpace=wrap;html=1;" vertex="1" parent="1">
          <mxGeometry x="-637.5" y="1097.5" width="932.5" height="65" as="geometry" />
        </mxCell>
        <mxCell id="n3sr81KYQuMuHgAfEhZ_-67" value="" style="endArrow=open;strokeColor=#FF0000;endFill=1;rounded=0;exitX=1;exitY=0.5;exitDx=0;exitDy=0;entryX=0;entryY=0.5;entryDx=0;entryDy=0;" edge="1" parent="1" source="15" target="n3sr81KYQuMuHgAfEhZ_-66">
          <mxGeometry relative="1" as="geometry">
            <mxPoint x="579.5" y="265" as="sourcePoint" />
            <mxPoint x="579.5" y="230" as="targetPoint" />
          </mxGeometry>
        </mxCell>
        <mxCell id="n3sr81KYQuMuHgAfEhZ_-73" value="" style="endArrow=open;strokeColor=#FF0000;endFill=1;rounded=0;exitX=1;exitY=0.5;exitDx=0;exitDy=0;entryX=0;entryY=0.5;entryDx=0;entryDy=0;" edge="1" parent="1" source="n3sr81KYQuMuHgAfEhZ_-68" target="n3sr81KYQuMuHgAfEhZ_-70">
          <mxGeometry relative="1" as="geometry">
            <mxPoint x="1080" y="270" as="sourcePoint" />
            <mxPoint x="1188" y="270" as="targetPoint" />
          </mxGeometry>
        </mxCell>
        <mxCell id="n3sr81KYQuMuHgAfEhZ_-75" value="" style="endArrow=open;strokeColor=#FF0000;endFill=1;rounded=0;exitX=0;exitY=0.5;exitDx=0;exitDy=0;entryX=1;entryY=0.5;entryDx=0;entryDy=0;" edge="1" parent="1" source="n3sr81KYQuMuHgAfEhZ_-71" target="n3sr81KYQuMuHgAfEhZ_-74">
          <mxGeometry relative="1" as="geometry">
            <mxPoint x="585" y="540" as="sourcePoint" />
            <mxPoint x="585" y="600" as="targetPoint" />
          </mxGeometry>
        </mxCell>
      </root>
    </mxGraphModel>
  </diagram>
</mxfile>
